<svg width="772" height="772" viewBox="0 0 772 772" fill="none" xmlns="http://www.w3.org/2000/svg">
<ellipse cx="387" cy="382.5" rx="304" ry="283.5" fill="white"/>
<path fill-rule="evenodd" clip-rule="evenodd" d="M184.786 193.324C189.866 188.243 195.111 183.364 200.507 178.69C100.874 287.343 110.291 445.512 214.485 549.706C320.551 646.579 514.651 649.054 618.242 534.856C627.705 525.393 636.288 515.508 644.004 505.274C632.126 527.9 616.626 549.2 597.383 568.444C488.622 677.205 307.116 674.156 192.918 570.566C87.6187 475.046 68.4668 309.643 184.786 193.324Z" fill="#0177B2"/>
<path d="M211.267 195.834C260.69 146.41 326.108 122.893 390.407 125.387C337.23 136.33 286.852 160.701 253.022 188.02C147.998 272.829 153.787 426.782 245.951 518.946C306.874 579.869 393.234 600.105 471.741 579.864C384.605 618.285 279.779 602.343 209.146 531.709C116.982 439.545 117.932 289.169 211.267 195.834Z" fill="#4FB4DB"/>
<path d="M247.011 208.173C160.771 294.414 172.765 452.125 276.356 519.654C213.424 464.5 183.398 317.041 269.639 230.801C355.879 144.56 480.415 146.597 581.756 203.648C491.246 113.138 337.167 118.017 247.011 208.173Z" fill="#0177B2"/>
<mask id="path-5-inside-1_301_96" fill="white">
<path d="M478.552 312.131C481.319 306.781 487.901 304.565 492.964 307.828C507.022 316.889 518.311 329.584 525.5 344.582C534.234 362.803 536.407 383.36 531.671 402.939C526.934 422.517 515.563 439.975 499.391 452.497C483.219 465.02 463.189 471.878 442.531 471.965C421.873 472.051 401.791 465.362 385.523 452.975C369.255 440.588 357.749 423.226 352.862 403.689C347.974 384.151 349.989 363.576 358.582 345.283C365.655 330.224 376.845 317.434 390.834 308.256C395.871 304.951 402.47 307.114 405.279 312.443C408.174 317.936 405.919 324.67 400.887 328.308C391.548 335.06 384.051 344.03 379.163 354.436C372.686 368.226 371.167 383.736 374.852 398.464C378.536 413.192 387.209 426.28 399.472 435.617C411.735 444.954 426.874 449.997 442.446 449.931C458.019 449.866 473.118 444.697 485.308 435.257C497.499 425.817 506.07 412.657 509.641 397.898C513.212 383.14 511.573 367.644 504.989 353.909C500.023 343.547 492.46 334.643 483.073 327.97C478.01 324.37 475.699 317.65 478.552 312.131Z"/>
</mask>
<path d="M478.552 312.131C481.319 306.781 487.901 304.565 492.964 307.828C507.022 316.889 518.311 329.584 525.5 344.582C534.234 362.803 536.407 383.36 531.671 402.939C526.934 422.517 515.563 439.975 499.391 452.497C483.219 465.02 463.189 471.878 442.531 471.965C421.873 472.051 401.791 465.362 385.523 452.975C369.255 440.588 357.749 423.226 352.862 403.689C347.974 384.151 349.989 363.576 358.582 345.283C365.655 330.224 376.845 317.434 390.834 308.256C395.871 304.951 402.47 307.114 405.279 312.443C408.174 317.936 405.919 324.67 400.887 328.308C391.548 335.06 384.051 344.03 379.163 354.436C372.686 368.226 371.167 383.736 374.852 398.464C378.536 413.192 387.209 426.28 399.472 435.617C411.735 444.954 426.874 449.997 442.446 449.931C458.019 449.866 473.118 444.697 485.308 435.257C497.499 425.817 506.07 412.657 509.641 397.898C513.212 383.14 511.573 367.644 504.989 353.909C500.023 343.547 492.46 334.643 483.073 327.97C478.01 324.37 475.699 317.65 478.552 312.131Z" fill="#0177B2" stroke="#0177B2" stroke-width="2" mask="url(#path-5-inside-1_301_96)"/>
<line x1="441.012" y1="356.211" x2="441.012" y2="288.53" stroke="#0177B2" stroke-width="20" stroke-linecap="round"/>
</svg>
