<svg width="845" height="951" viewBox="0 0 845 951" fill="none" xmlns="http://www.w3.org/2000/svg">
<rect x="97.2148" y="729.749" width="620.914" height="219.25" rx="3" stroke="#0076B2" stroke-width="4"/>
<path d="M138.341 816.087C138.341 804.439 140.861 794.079 145.901 785.007C150.941 775.823 157.941 768.711 166.901 763.671C175.973 758.519 186.221 755.943 197.645 755.943C211.645 755.943 223.629 759.639 233.597 767.031C243.565 774.423 250.229 784.503 253.589 797.271H222.005C219.653 792.343 216.293 788.591 211.925 786.015C207.669 783.439 202.797 782.151 197.309 782.151C188.461 782.151 181.293 785.231 175.805 791.391C170.317 797.551 167.573 805.783 167.573 816.087C167.573 826.391 170.317 834.623 175.805 840.783C181.293 846.943 188.461 850.023 197.309 850.023C202.797 850.023 207.669 848.735 211.925 846.159C216.293 843.583 219.653 839.831 222.005 834.903H253.589C250.229 847.671 243.565 857.751 233.597 865.143C223.629 872.423 211.645 876.063 197.645 876.063C186.221 876.063 175.973 873.543 166.901 868.503C157.941 863.351 150.941 856.239 145.901 847.167C140.861 838.095 138.341 827.735 138.341 816.087ZM317.91 757.287V875.223H289.182V757.287H317.91ZM467.44 757.287L425.608 875.223H389.656L347.824 757.287H378.4L407.632 846.327L437.032 757.287H467.44ZM526.175 757.287V875.223H497.447V757.287H526.175ZM560.122 816.087C560.122 804.439 562.642 794.079 567.682 785.007C572.722 775.823 579.722 768.711 588.682 763.671C597.754 758.519 608.002 755.943 619.426 755.943C633.426 755.943 645.41 759.639 655.378 767.031C665.346 774.423 672.01 784.503 675.37 797.271H643.786C641.434 792.343 638.074 788.591 633.706 786.015C629.45 783.439 624.578 782.151 619.09 782.151C610.242 782.151 603.074 785.231 597.586 791.391C592.098 797.551 589.354 805.783 589.354 816.087C589.354 826.391 592.098 834.623 597.586 840.783C603.074 846.943 610.242 850.023 619.09 850.023C624.578 850.023 629.45 848.735 633.706 846.159C638.074 843.583 641.434 839.831 643.786 834.903H675.37C672.01 847.671 665.346 857.751 655.378 865.143C645.41 872.423 633.426 876.063 619.426 876.063C608.002 876.063 597.754 873.543 588.682 868.503C579.722 863.351 572.722 856.239 567.682 847.167C562.642 838.095 560.122 827.735 560.122 816.087Z" fill="#0076B2"/>
<path d="M157.169 894.268V897.228H149.569V922.148H145.929V897.228H138.289V894.268H157.169ZM187.79 897.228V906.548H197.95V909.548H187.79V919.148H199.15V922.148H184.15V894.228H199.15V897.228H187.79ZM225.798 908.188C225.798 905.468 226.411 903.028 227.638 900.868C228.864 898.682 230.531 896.975 232.638 895.748C234.771 894.522 237.131 893.908 239.718 893.908C242.758 893.908 245.411 894.642 247.678 896.108C249.944 897.575 251.598 899.655 252.638 902.348H248.278C247.504 900.668 246.384 899.375 244.918 898.468C243.478 897.562 241.744 897.108 239.718 897.108C237.771 897.108 236.024 897.562 234.478 898.468C232.931 899.375 231.718 900.668 230.838 902.348C229.958 904.002 229.518 905.948 229.518 908.188C229.518 910.402 229.958 912.348 230.838 914.028C231.718 915.682 232.931 916.962 234.478 917.868C236.024 918.775 237.771 919.228 239.718 919.228C241.744 919.228 243.478 918.788 244.918 917.908C246.384 917.002 247.504 915.708 248.278 914.028H252.638C251.598 916.695 249.944 918.762 247.678 920.228C245.411 921.668 242.758 922.388 239.718 922.388C237.131 922.388 234.771 921.788 232.638 920.588C230.531 919.362 228.864 917.668 227.638 915.508C226.411 913.348 225.798 910.908 225.798 908.188ZM302.036 894.268V922.148H298.396V909.508H284.196V922.148H280.556V894.268H284.196V906.508H298.396V894.268H302.036ZM352.671 922.148H349.031L334.391 899.948V922.148H330.751V894.228H334.391L349.031 916.388V894.228H352.671V922.148ZM394.016 922.428C391.43 922.428 389.07 921.828 386.936 920.628C384.803 919.402 383.11 917.708 381.856 915.548C380.63 913.362 380.016 910.908 380.016 908.188C380.016 905.468 380.63 903.028 381.856 900.868C383.11 898.682 384.803 896.988 386.936 895.788C389.07 894.562 391.43 893.948 394.016 893.948C396.63 893.948 399.003 894.562 401.136 895.788C403.27 896.988 404.95 898.668 406.176 900.828C407.403 902.988 408.016 905.442 408.016 908.188C408.016 910.935 407.403 913.388 406.176 915.548C404.95 917.708 403.27 919.402 401.136 920.628C399.003 921.828 396.63 922.428 394.016 922.428ZM394.016 919.268C395.963 919.268 397.71 918.815 399.256 917.908C400.83 917.002 402.056 915.708 402.936 914.028C403.843 912.348 404.296 910.402 404.296 908.188C404.296 905.948 403.843 904.002 402.936 902.348C402.056 900.668 400.843 899.375 399.296 898.468C397.75 897.562 395.99 897.108 394.016 897.108C392.043 897.108 390.283 897.562 388.736 898.468C387.19 899.375 385.963 900.668 385.056 902.348C384.176 904.002 383.736 905.948 383.736 908.188C383.736 910.402 384.176 912.348 385.056 914.028C385.963 915.708 387.19 917.002 388.736 917.908C390.31 918.815 392.07 919.268 394.016 919.268ZM438.962 919.188H448.722V922.148H435.322V894.268H438.962V919.188ZM487.727 922.428C485.141 922.428 482.781 921.828 480.647 920.628C478.514 919.402 476.821 917.708 475.567 915.548C474.341 913.362 473.727 910.908 473.727 908.188C473.727 905.468 474.341 903.028 475.567 900.868C476.821 898.682 478.514 896.988 480.647 895.788C482.781 894.562 485.141 893.948 487.727 893.948C490.341 893.948 492.714 894.562 494.847 895.788C496.981 896.988 498.661 898.668 499.887 900.828C501.114 902.988 501.727 905.442 501.727 908.188C501.727 910.935 501.114 913.388 499.887 915.548C498.661 917.708 496.981 919.402 494.847 920.628C492.714 921.828 490.341 922.428 487.727 922.428ZM487.727 919.268C489.674 919.268 491.421 918.815 492.967 917.908C494.541 917.002 495.767 915.708 496.647 914.028C497.554 912.348 498.007 910.402 498.007 908.188C498.007 905.948 497.554 904.002 496.647 902.348C495.767 900.668 494.554 899.375 493.007 898.468C491.461 897.562 489.701 897.108 487.727 897.108C485.754 897.108 483.994 897.562 482.447 898.468C480.901 899.375 479.674 900.668 478.767 902.348C477.887 904.002 477.447 905.948 477.447 908.188C477.447 910.402 477.887 912.348 478.767 914.028C479.674 915.708 480.901 917.002 482.447 917.908C484.021 918.815 485.781 919.268 487.727 919.268ZM550.153 902.348C549.379 900.722 548.259 899.468 546.793 898.588C545.326 897.682 543.619 897.228 541.673 897.228C539.726 897.228 537.966 897.682 536.393 898.588C534.846 899.468 533.619 900.748 532.713 902.428C531.833 904.082 531.393 906.002 531.393 908.188C531.393 910.375 531.833 912.295 532.713 913.948C533.619 915.602 534.846 916.882 536.393 917.788C537.966 918.668 539.726 919.108 541.673 919.108C544.393 919.108 546.633 918.295 548.393 916.668C550.153 915.042 551.179 912.842 551.473 910.068H540.353V907.108H555.353V909.908C555.139 912.202 554.419 914.308 553.193 916.228C551.966 918.122 550.353 919.628 548.353 920.748C546.353 921.842 544.126 922.388 541.673 922.388C539.086 922.388 536.726 921.788 534.593 920.588C532.459 919.362 530.766 917.668 529.513 915.508C528.286 913.348 527.673 910.908 527.673 908.188C527.673 905.468 528.286 903.028 529.513 900.868C530.766 898.682 532.459 896.988 534.593 895.788C536.726 894.562 539.086 893.948 541.673 893.948C544.633 893.948 547.246 894.682 549.513 896.148C551.806 897.615 553.473 899.682 554.513 902.348H550.153ZM586.305 894.268V922.148H582.665V894.268H586.305ZM618.649 897.228V906.548H628.809V909.548H618.649V919.148H630.009V922.148H615.009V894.228H630.009V897.228H618.649ZM666.857 922.428C665.017 922.428 663.364 922.108 661.897 921.468C660.457 920.802 659.324 919.895 658.497 918.748C657.67 917.575 657.244 916.228 657.217 914.708H661.097C661.23 916.015 661.764 917.122 662.697 918.028C663.657 918.908 665.044 919.348 666.857 919.348C668.59 919.348 669.95 918.922 670.937 918.068C671.95 917.188 672.457 916.068 672.457 914.708C672.457 913.642 672.164 912.775 671.577 912.108C670.99 911.442 670.257 910.935 669.377 910.588C668.497 910.242 667.31 909.868 665.817 909.468C663.977 908.988 662.497 908.508 661.377 908.028C660.284 907.548 659.337 906.802 658.537 905.788C657.764 904.748 657.377 903.362 657.377 901.628C657.377 900.108 657.764 898.762 658.537 897.588C659.31 896.415 660.39 895.508 661.777 894.868C663.19 894.228 664.804 893.908 666.617 893.908C669.23 893.908 671.364 894.562 673.017 895.868C674.697 897.175 675.644 898.908 675.857 901.068H671.857C671.724 900.002 671.164 899.068 670.177 898.268C669.19 897.442 667.884 897.028 666.257 897.028C664.737 897.028 663.497 897.428 662.537 898.228C661.577 899.002 661.097 900.095 661.097 901.508C661.097 902.522 661.377 903.348 661.937 903.988C662.524 904.628 663.23 905.122 664.057 905.468C664.91 905.788 666.097 906.162 667.617 906.588C669.457 907.095 670.937 907.602 672.057 908.108C673.177 908.588 674.137 909.348 674.937 910.388C675.737 911.402 676.137 912.788 676.137 914.548C676.137 915.908 675.777 917.188 675.057 918.388C674.337 919.588 673.27 920.562 671.857 921.308C670.444 922.055 668.777 922.428 666.857 922.428Z" fill="#0076B2"/>
<path d="M202.233 211.564C207.792 206.005 213.532 200.666 219.437 195.552C110.399 314.457 120.705 487.549 234.736 601.574C350.816 707.588 563.245 710.297 676.617 585.323C686.973 574.968 696.366 564.149 704.811 552.95C691.811 577.711 674.848 601.021 653.787 622.081C534.757 741.104 336.113 737.768 211.133 624.402C95.8912 519.87 74.9314 338.859 202.233 211.564Z" fill="#0076B2"/>
<path d="M231.215 214.311C285.305 160.224 356.899 134.487 427.269 137.216C369.072 149.192 313.936 175.863 276.911 205.76C161.972 298.571 168.308 467.051 269.173 567.911C335.851 634.586 430.369 656.73 516.29 634.575C420.925 676.626 306.199 659.18 228.894 581.88C128.028 481.02 129.067 316.453 231.215 214.311Z" fill="#4EB4DB"/>
<path d="M270.334 227.815C175.951 322.193 189.077 494.786 302.45 568.687C233.575 508.328 200.715 346.956 295.098 252.578C389.481 158.199 525.775 160.428 636.685 222.863C537.629 123.813 369.003 129.152 270.334 227.815Z" fill="#0076B2"/>
<mask id="path-7-inside-1_319_86" fill="white">
<path d="M523.738 341.583C526.765 335.727 533.968 333.303 539.51 336.874C554.896 346.789 567.25 360.683 575.118 377.096C584.676 397.037 587.055 419.533 581.871 440.959C576.687 462.384 564.243 481.49 546.544 495.194C528.845 508.899 506.924 516.403 484.315 516.498C461.707 516.593 439.728 509.272 421.924 495.717C404.12 482.161 391.528 463.161 386.179 441.78C380.83 420.398 383.035 397.882 392.439 377.863C400.18 361.383 412.428 347.386 427.737 337.342C433.249 333.725 440.472 336.092 443.546 341.924V341.924C446.715 347.935 444.246 355.305 438.739 359.287C428.518 366.676 420.314 376.492 414.964 387.88C407.875 402.971 406.213 419.944 410.245 436.062C414.278 452.179 423.77 466.502 437.191 476.721C450.612 486.939 467.179 492.457 484.222 492.386C501.265 492.315 517.79 486.657 531.131 476.327C544.473 465.996 553.854 451.594 557.762 435.443C561.669 419.292 559.876 402.334 552.671 387.302C547.235 375.963 538.959 366.219 528.686 358.916C523.144 354.977 520.615 347.623 523.738 341.583V341.583Z"/>
</mask>
<path d="M523.738 341.583C526.765 335.727 533.968 333.303 539.51 336.874C554.896 346.789 567.25 360.683 575.118 377.096C584.676 397.037 587.055 419.533 581.871 440.959C576.687 462.384 564.243 481.49 546.544 495.194C528.845 508.899 506.924 516.403 484.315 516.498C461.707 516.593 439.728 509.272 421.924 495.717C404.12 482.161 391.528 463.161 386.179 441.78C380.83 420.398 383.035 397.882 392.439 377.863C400.18 361.383 412.428 347.386 427.737 337.342C433.249 333.725 440.472 336.092 443.546 341.924V341.924C446.715 347.935 444.246 355.305 438.739 359.287C428.518 366.676 420.314 376.492 414.964 387.88C407.875 402.971 406.213 419.944 410.245 436.062C414.278 452.179 423.77 466.502 437.191 476.721C450.612 486.939 467.179 492.457 484.222 492.386C501.265 492.315 517.79 486.657 531.131 476.327C544.473 465.996 553.854 451.594 557.762 435.443C561.669 419.292 559.876 402.334 552.671 387.302C547.235 375.963 538.959 366.219 528.686 358.916C523.144 354.977 520.615 347.623 523.738 341.583V341.583Z" fill="#0076B2" stroke="#0076B2" stroke-width="2" mask="url(#path-7-inside-1_319_86)"/>
<line x1="483.596" y1="390.765" x2="483.596" y2="314.81" stroke="#0076B2" stroke-width="20" stroke-linecap="round"/>
</svg>
