<svg width="2744" height="1297" viewBox="0 0 2744 1297" fill="none" xmlns="http://www.w3.org/2000/svg">
<path d="M1067.88 291.764C1075.55 284.097 1083.46 276.733 1091.61 269.679C941.241 433.659 955.451 672.367 1112.7 829.617C1272.78 975.819 1565.71 979.554 1722.05 807.206C1736.34 792.925 1749.29 778.006 1760.93 762.562C1743.01 796.709 1719.62 828.854 1690.57 857.897C1526.43 1022.04 1252.5 1017.44 1080.15 861.099C921.234 716.94 892.33 467.313 1067.88 291.764Z" fill="#0076B2"/>
<path d="M1107.85 295.552C1182.44 220.962 1281.16 185.47 1378.2 189.233C1297.95 205.748 1221.92 242.529 1170.86 283.759C1012.36 411.753 1021.1 644.101 1160.19 783.195C1252.14 875.143 1382.48 905.681 1500.96 875.128C1369.46 933.119 1211.25 909.061 1104.64 802.458C965.55 663.364 966.983 436.414 1107.85 295.552Z" fill="#4EB4DB"/>
<path d="M1161.79 314.174C1031.64 444.328 1049.74 682.347 1206.08 784.262C1111.1 701.023 1065.79 478.478 1195.94 348.323C1326.1 218.168 1514.04 221.242 1666.99 307.344C1530.39 170.746 1297.86 178.11 1161.79 314.174Z" fill="#0076B2"/>
<mask id="path-4-inside-1_316_85" fill="white">
<path d="M1511.23 471.068C1515.41 462.992 1525.34 459.649 1532.98 464.573C1554.2 478.247 1571.24 497.408 1582.09 520.043C1595.27 547.542 1598.55 578.567 1591.4 608.114C1584.25 637.662 1567.09 664.01 1542.68 682.909C1518.28 701.808 1488.05 712.158 1456.87 712.289C1425.69 712.42 1395.39 702.324 1370.83 683.63C1346.28 664.936 1328.92 638.733 1321.54 609.246C1314.16 579.76 1317.21 548.709 1330.17 521.1C1340.85 498.374 1357.74 479.07 1378.85 465.219C1386.45 460.231 1396.41 463.495 1400.65 471.537V471.537C1405.02 479.828 1401.62 489.992 1394.02 495.482C1379.93 505.672 1368.61 519.209 1361.24 534.915C1351.46 555.727 1349.17 579.134 1354.73 601.361C1360.29 623.588 1373.38 643.341 1391.89 657.433C1410.39 671.525 1433.24 679.135 1456.74 679.036C1480.24 678.938 1503.03 671.136 1521.43 656.889C1539.83 642.643 1552.76 622.781 1558.15 600.508C1563.54 578.234 1561.07 554.847 1551.13 534.118C1543.64 518.48 1532.22 505.042 1518.06 494.972C1510.41 489.539 1506.93 479.397 1511.23 471.068V471.068Z"/>
</mask>
<path d="M1511.23 471.068C1515.41 462.992 1525.34 459.649 1532.98 464.573C1554.2 478.247 1571.24 497.408 1582.09 520.043C1595.27 547.542 1598.55 578.567 1591.4 608.114C1584.25 637.662 1567.09 664.01 1542.68 682.909C1518.28 701.808 1488.05 712.158 1456.87 712.289C1425.69 712.42 1395.39 702.324 1370.83 683.63C1346.28 664.936 1328.92 638.733 1321.54 609.246C1314.16 579.76 1317.21 548.709 1330.17 521.1C1340.85 498.374 1357.74 479.07 1378.85 465.219C1386.45 460.231 1396.41 463.495 1400.65 471.537V471.537C1405.02 479.828 1401.62 489.992 1394.02 495.482C1379.93 505.672 1368.61 519.209 1361.24 534.915C1351.46 555.727 1349.17 579.134 1354.73 601.361C1360.29 623.588 1373.38 643.341 1391.89 657.433C1410.39 671.525 1433.24 679.135 1456.74 679.036C1480.24 678.938 1503.03 671.136 1521.43 656.889C1539.83 642.643 1552.76 622.781 1558.15 600.508C1563.54 578.234 1561.07 554.847 1551.13 534.118C1543.64 518.48 1532.22 505.042 1518.06 494.972C1510.41 489.539 1506.93 479.397 1511.23 471.068V471.068Z" fill="#0076B2" stroke="#0076B2" stroke-width="2" mask="url(#path-4-inside-1_316_85)"/>
<line x1="1459.67" y1="542.687" x2="1459.67" y2="430.358" stroke="#0076B2" stroke-width="20" stroke-linecap="round"/>
<path d="M156.166 1224.6C156.166 1210.73 159.166 1198.4 165.166 1187.6C171.166 1176.66 179.5 1168.2 190.166 1162.2C200.966 1156.06 213.166 1153 226.766 1153C243.433 1153 257.7 1157.4 269.566 1166.2C281.433 1175 289.366 1187 293.366 1202.2H255.766C252.966 1196.33 248.966 1191.86 243.766 1188.8C238.7 1185.73 232.9 1184.2 226.366 1184.2C215.833 1184.2 207.3 1187.86 200.766 1195.2C194.233 1202.53 190.966 1212.33 190.966 1224.6C190.966 1236.86 194.233 1246.66 200.766 1254C207.3 1261.33 215.833 1265 226.366 1265C232.9 1265 238.7 1263.46 243.766 1260.4C248.966 1257.33 252.966 1252.86 255.766 1247H293.366C289.366 1262.2 281.433 1274.2 269.566 1283C257.7 1291.66 243.433 1296 226.766 1296C213.166 1296 200.966 1293 190.166 1287C179.5 1280.86 171.166 1272.4 165.166 1261.6C159.166 1250.8 156.166 1238.46 156.166 1224.6ZM366.51 1154.6V1295H332.31V1154.6H366.51ZM541.095 1154.6L491.295 1295H448.495L398.695 1154.6H435.095L469.895 1260.6L504.895 1154.6H541.095ZM607.588 1154.6V1295H573.388V1154.6H607.588ZM644.573 1224.6C644.573 1210.73 647.573 1198.4 653.573 1187.6C659.573 1176.66 667.906 1168.2 678.573 1162.2C689.373 1156.06 701.573 1153 715.173 1153C731.839 1153 746.106 1157.4 757.973 1166.2C769.839 1175 777.773 1187 781.773 1202.2H744.173C741.373 1196.33 737.373 1191.86 732.173 1188.8C727.106 1185.73 721.306 1184.2 714.773 1184.2C704.239 1184.2 695.706 1187.86 689.173 1195.2C682.639 1202.53 679.373 1212.33 679.373 1224.6C679.373 1236.86 682.639 1246.66 689.173 1254C695.706 1261.33 704.239 1265 714.773 1265C721.306 1265 727.106 1263.46 732.173 1260.4C737.373 1257.33 741.373 1252.86 744.173 1247H781.773C777.773 1262.2 769.839 1274.2 757.973 1283C746.106 1291.66 731.839 1296 715.173 1296C701.573 1296 689.373 1293 678.573 1287C667.906 1280.86 659.573 1272.4 653.573 1261.6C647.573 1250.8 644.573 1238.46 644.573 1224.6ZM982.099 1154.6V1182H944.899V1295H910.699V1182H873.499V1154.6H982.099ZM1051.46 1182V1210.4H1097.26V1236.8H1051.46V1267.6H1103.26V1295H1017.26V1154.6H1103.26V1182H1051.46ZM1137.67 1224.6C1137.67 1210.73 1140.67 1198.4 1146.67 1187.6C1152.67 1176.66 1161 1168.2 1171.67 1162.2C1182.47 1156.06 1194.67 1153 1208.27 1153C1224.93 1153 1239.2 1157.4 1251.07 1166.2C1262.93 1175 1270.87 1187 1274.87 1202.2H1237.27C1234.47 1196.33 1230.47 1191.86 1225.27 1188.8C1220.2 1185.73 1214.4 1184.2 1207.87 1184.2C1197.33 1184.2 1188.8 1187.86 1182.27 1195.2C1175.73 1202.53 1172.47 1212.33 1172.47 1224.6C1172.47 1236.86 1175.73 1246.66 1182.27 1254C1188.8 1261.33 1197.33 1265 1207.87 1265C1214.4 1265 1220.2 1263.46 1225.27 1260.4C1230.47 1257.33 1234.47 1252.86 1237.27 1247H1274.87C1270.87 1262.2 1262.93 1274.2 1251.07 1283C1239.2 1291.66 1224.93 1296 1208.27 1296C1194.67 1296 1182.47 1293 1171.67 1287C1161 1280.86 1152.67 1272.4 1146.67 1261.6C1140.67 1250.8 1137.67 1238.46 1137.67 1224.6ZM1435.41 1154.6V1295H1401.21V1237.2H1348.01V1295H1313.81V1154.6H1348.01V1209.6H1401.21V1154.6H1435.41ZM1603.7 1295H1569.5L1512.3 1208.4V1295H1478.1V1154.6H1512.3L1569.5 1241.6V1154.6H1603.7V1295ZM1712.89 1296.4C1699.69 1296.4 1687.56 1293.33 1676.49 1287.2C1665.56 1281.06 1656.82 1272.53 1650.29 1261.6C1643.89 1250.53 1640.69 1238.13 1640.69 1224.4C1640.69 1210.66 1643.89 1198.33 1650.29 1187.4C1656.82 1176.46 1665.56 1167.93 1676.49 1161.8C1687.56 1155.66 1699.69 1152.6 1712.89 1152.6C1726.09 1152.6 1738.16 1155.66 1749.09 1161.8C1760.16 1167.93 1768.82 1176.46 1775.09 1187.4C1781.49 1198.33 1784.69 1210.66 1784.69 1224.4C1784.69 1238.13 1781.49 1250.53 1775.09 1261.6C1768.69 1272.53 1760.02 1281.06 1749.09 1287.2C1738.16 1293.33 1726.09 1296.4 1712.89 1296.4ZM1712.89 1265.2C1724.09 1265.2 1733.02 1261.46 1739.69 1254C1746.49 1246.53 1749.89 1236.66 1749.89 1224.4C1749.89 1212 1746.49 1202.13 1739.69 1194.8C1733.02 1187.33 1724.09 1183.6 1712.89 1183.6C1701.56 1183.6 1692.49 1187.26 1685.69 1194.6C1679.02 1201.93 1675.69 1211.86 1675.69 1224.4C1675.69 1236.8 1679.02 1246.73 1685.69 1254.2C1692.49 1261.53 1701.56 1265.2 1712.89 1265.2ZM1855.92 1268.6H1900.72V1295H1821.72V1154.6H1855.92V1268.6ZM2001.43 1296.4C1988.23 1296.4 1976.1 1293.33 1965.03 1287.2C1954.1 1281.06 1945.36 1272.53 1938.83 1261.6C1932.43 1250.53 1929.23 1238.13 1929.23 1224.4C1929.23 1210.66 1932.43 1198.33 1938.83 1187.4C1945.36 1176.46 1954.1 1167.93 1965.03 1161.8C1976.1 1155.66 1988.23 1152.6 2001.43 1152.6C2014.63 1152.6 2026.7 1155.66 2037.63 1161.8C2048.7 1167.93 2057.36 1176.46 2063.63 1187.4C2070.03 1198.33 2073.23 1210.66 2073.23 1224.4C2073.23 1238.13 2070.03 1250.53 2063.63 1261.6C2057.23 1272.53 2048.56 1281.06 2037.63 1287.2C2026.7 1293.33 2014.63 1296.4 2001.43 1296.4ZM2001.43 1265.2C2012.63 1265.2 2021.56 1261.46 2028.23 1254C2035.03 1246.53 2038.43 1236.66 2038.43 1224.4C2038.43 1212 2035.03 1202.13 2028.23 1194.8C2021.56 1187.33 2012.63 1183.6 2001.43 1183.6C1990.1 1183.6 1981.03 1187.26 1974.23 1194.6C1967.56 1201.93 1964.23 1211.86 1964.23 1224.4C1964.23 1236.8 1967.56 1246.73 1974.23 1254.2C1981.03 1261.53 1990.1 1265.2 2001.43 1265.2ZM2203.46 1199C2200.92 1194.33 2197.26 1190.8 2192.46 1188.4C2187.79 1185.86 2182.26 1184.6 2175.86 1184.6C2164.79 1184.6 2155.92 1188.26 2149.26 1195.6C2142.59 1202.8 2139.26 1212.46 2139.26 1224.6C2139.26 1237.53 2142.72 1247.66 2149.66 1255C2156.72 1262.2 2166.39 1265.8 2178.66 1265.8C2187.06 1265.8 2194.12 1263.66 2199.86 1259.4C2205.72 1255.13 2209.99 1249 2212.66 1241H2169.26V1215.8H2243.66V1247.6C2241.12 1256.13 2236.79 1264.06 2230.66 1271.4C2224.66 1278.73 2216.99 1284.66 2207.66 1289.2C2198.32 1293.73 2187.79 1296 2176.06 1296C2162.19 1296 2149.79 1293 2138.86 1287C2128.06 1280.86 2119.59 1272.4 2113.46 1261.6C2107.46 1250.8 2104.46 1238.46 2104.46 1224.6C2104.46 1210.73 2107.46 1198.4 2113.46 1187.6C2119.59 1176.66 2128.06 1168.2 2138.86 1162.2C2149.66 1156.06 2161.99 1153 2175.86 1153C2192.66 1153 2206.79 1157.06 2218.26 1165.2C2229.86 1173.33 2237.52 1184.6 2241.26 1199H2203.46ZM2314.8 1154.6V1295H2280.6V1154.6H2314.8ZM2391.78 1182V1210.4H2437.58V1236.8H2391.78V1267.6H2443.58V1295H2357.58V1154.6H2443.58V1182H2391.78ZM2534.59 1296.4C2524.32 1296.4 2515.12 1294.73 2506.99 1291.4C2498.85 1288.06 2492.32 1283.13 2487.39 1276.6C2482.59 1270.06 2480.05 1262.2 2479.79 1253H2516.19C2516.72 1258.2 2518.52 1262.2 2521.59 1265C2524.65 1267.66 2528.65 1269 2533.59 1269C2538.65 1269 2542.65 1267.86 2545.59 1265.6C2548.52 1263.2 2549.99 1259.93 2549.99 1255.8C2549.99 1252.33 2548.79 1249.46 2546.39 1247.2C2544.12 1244.93 2541.25 1243.06 2537.79 1241.6C2534.45 1240.13 2529.65 1238.46 2523.39 1236.6C2514.32 1233.8 2506.92 1231 2501.19 1228.2C2495.45 1225.4 2490.52 1221.26 2486.39 1215.8C2482.25 1210.33 2480.19 1203.2 2480.19 1194.4C2480.19 1181.33 2484.92 1171.13 2494.39 1163.8C2503.85 1156.33 2516.19 1152.6 2531.39 1152.6C2546.85 1152.6 2559.32 1156.33 2568.79 1163.8C2578.25 1171.13 2583.32 1181.4 2583.99 1194.6H2546.99C2546.72 1190.06 2545.05 1186.53 2541.99 1184C2538.92 1181.33 2534.99 1180 2530.19 1180C2526.05 1180 2522.72 1181.13 2520.19 1183.4C2517.65 1185.53 2516.39 1188.66 2516.39 1192.8C2516.39 1197.33 2518.52 1200.86 2522.79 1203.4C2527.05 1205.93 2533.72 1208.66 2542.79 1211.6C2551.85 1214.66 2559.19 1217.6 2564.79 1220.4C2570.52 1223.2 2575.45 1227.26 2579.59 1232.6C2583.72 1237.93 2585.79 1244.8 2585.79 1253.2C2585.79 1261.2 2583.72 1268.46 2579.59 1275C2575.59 1281.53 2569.72 1286.73 2561.99 1290.6C2554.25 1294.46 2545.12 1296.4 2534.59 1296.4Z" fill="#0076B2"/>
</svg>
