<svg width="1346" height="548" viewBox="0 0 1346 548" fill="none" xmlns="http://www.w3.org/2000/svg">
<path d="M131.161 137.219C134.765 133.615 138.487 130.153 142.315 126.837C71.6004 203.958 78.2852 316.223 152.24 390.178C227.525 458.938 365.298 460.694 438.826 379.637C445.543 372.92 451.635 365.903 457.112 358.639C448.68 374.699 437.68 389.818 424.021 403.478C346.822 480.676 217.989 478.513 136.932 404.984C62.1913 337.185 48.5981 219.782 131.161 137.219Z" fill="#0177B2"/>
<path d="M149.956 139.001C185.036 103.921 231.47 87.2296 277.109 88.9998C239.365 96.7671 203.605 114.065 179.593 133.456C105.048 193.653 109.156 302.928 174.573 368.346C217.82 411.592 279.123 425.951 334.85 411.579C272.999 438.856 198.588 427.543 148.45 377.405C83.0326 311.987 83.7067 205.25 149.956 139.001Z" fill="#4FB4DB"/>
<path d="M175.328 147.759C114.114 208.973 122.628 320.916 196.156 368.847C151.487 329.699 130.175 225.033 191.388 163.82C252.602 102.607 340.996 104.052 412.928 144.547C348.684 80.3037 239.32 83.7668 175.328 147.759Z" fill="#0177B2"/>
<mask id="path-4-inside-1_320_103" fill="white">
<path d="M339.674 221.547C341.638 217.749 346.31 216.177 349.903 218.493C359.882 224.924 367.895 233.935 372.997 244.581C379.197 257.514 380.74 272.105 377.377 286.002C374.015 299.898 365.944 312.29 354.465 321.179C342.987 330.067 328.77 334.935 314.107 334.996C299.443 335.058 285.189 330.31 273.642 321.518C262.095 312.726 253.929 300.402 250.459 286.534C246.99 272.667 248.42 258.063 254.52 245.078C259.54 234.39 267.483 225.311 277.412 218.797C280.987 216.451 285.672 217.986 287.665 221.768V221.768C289.72 225.667 288.12 230.448 284.548 233.03C277.919 237.822 272.598 244.189 269.128 251.575C264.531 261.364 263.453 272.372 266.068 282.826C268.683 293.28 274.839 302.569 283.543 309.197C292.248 315.825 302.993 319.404 314.046 319.357C325.099 319.311 335.817 315.642 344.469 308.941C353.122 302.241 359.206 292.9 361.741 282.424C364.275 271.949 363.112 260.95 358.439 251.201C354.914 243.846 349.546 237.526 342.883 232.79C339.289 230.235 337.649 225.465 339.674 221.547V221.547Z"/>
</mask>
<path d="M339.674 221.547C341.638 217.749 346.31 216.177 349.903 218.493C359.882 224.924 367.895 233.935 372.997 244.581C379.197 257.514 380.74 272.105 377.377 286.002C374.015 299.898 365.944 312.29 354.465 321.179C342.987 330.067 328.77 334.935 314.107 334.996C299.443 335.058 285.189 330.31 273.642 321.518C262.095 312.726 253.929 300.402 250.459 286.534C246.99 272.667 248.42 258.063 254.52 245.078C259.54 234.39 267.483 225.311 277.412 218.797C280.987 216.451 285.672 217.986 287.665 221.768V221.768C289.72 225.667 288.12 230.448 284.548 233.03C277.919 237.822 272.598 244.189 269.128 251.575C264.531 261.364 263.453 272.372 266.068 282.826C268.683 293.28 274.839 302.569 283.543 309.197C292.248 315.825 302.993 319.404 314.046 319.357C325.099 319.311 335.817 315.642 344.469 308.941C353.122 302.241 359.206 292.9 361.741 282.424C364.275 271.949 363.112 260.95 358.439 251.201C354.914 243.846 349.546 237.526 342.883 232.79C339.289 230.235 337.649 225.465 339.674 221.547V221.547Z" fill="#0177B2" stroke="#0177B2" stroke-width="2" mask="url(#path-4-inside-1_320_103)"/>
<line x1="10" y1="-10" x2="52.2358" y2="-10" transform="matrix(1.01152e-06 -1 1 -1.01152e-06 320.126 259.935)" stroke="#0177B2" stroke-width="20" stroke-linecap="round"/>
<path d="M478.781 240.035C478.781 222.702 482.531 207.285 490.031 193.785C497.531 180.118 507.948 169.535 521.281 162.035C534.781 154.368 550.031 150.535 567.031 150.535C587.865 150.535 605.698 156.035 620.531 167.035C635.365 178.035 645.281 193.035 650.281 212.035H603.281C599.781 204.702 594.781 199.118 588.281 195.285C581.948 191.452 574.698 189.535 566.531 189.535C553.365 189.535 542.698 194.118 534.531 203.285C526.365 212.452 522.281 224.702 522.281 240.035C522.281 255.368 526.365 267.618 534.531 276.785C542.698 285.952 553.365 290.535 566.531 290.535C574.698 290.535 581.948 288.618 588.281 284.785C594.781 280.952 599.781 275.368 603.281 268.035H650.281C645.281 287.035 635.365 302.035 620.531 313.035C605.698 323.868 587.865 329.285 567.031 329.285C550.031 329.285 534.781 325.535 521.281 318.035C507.948 310.368 497.531 299.785 490.031 286.285C482.531 272.785 478.781 257.368 478.781 240.035ZM737.211 152.535V328.035H694.461V152.535H737.211ZM950.941 152.535L888.691 328.035H835.191L772.941 152.535H818.441L861.941 285.035L905.691 152.535H950.941ZM1029.56 152.535V328.035H986.809V152.535H1029.56ZM1071.29 240.035C1071.29 222.702 1075.04 207.285 1082.54 193.785C1090.04 180.118 1100.46 169.535 1113.79 162.035C1127.29 154.368 1142.54 150.535 1159.54 150.535C1180.37 150.535 1198.21 156.035 1213.04 167.035C1227.87 178.035 1237.79 193.035 1242.79 212.035H1195.79C1192.29 204.702 1187.29 199.118 1180.79 195.285C1174.46 191.452 1167.21 189.535 1159.04 189.535C1145.87 189.535 1135.21 194.118 1127.04 203.285C1118.87 212.452 1114.79 224.702 1114.79 240.035C1114.79 255.368 1118.87 267.618 1127.04 276.785C1135.21 285.952 1145.87 290.535 1159.04 290.535C1167.21 290.535 1174.46 288.618 1180.79 284.785C1187.29 280.952 1192.29 275.368 1195.79 268.035H1242.79C1237.79 287.035 1227.87 302.035 1213.04 313.035C1198.21 323.868 1180.37 329.285 1159.54 329.285C1142.54 329.285 1127.29 325.535 1113.79 318.035C1100.46 310.368 1090.04 299.785 1082.54 286.285C1075.04 272.785 1071.29 257.368 1071.29 240.035Z" fill="#0177B2"/>
<path d="M523.934 348.243V353.423H510.634V397.033H504.264V353.423H490.894V348.243H523.934ZM560.645 353.423V369.733H578.425V374.983H560.645V391.783H580.525V397.033H554.275V348.173H580.525V353.423H560.645ZM610.283 372.603C610.283 367.843 611.357 363.573 613.503 359.793C615.65 355.967 618.567 352.98 622.253 350.833C625.987 348.687 630.117 347.613 634.643 347.613C639.963 347.613 644.607 348.897 648.573 351.463C652.54 354.03 655.433 357.67 657.253 362.383H649.623C648.27 359.443 646.31 357.18 643.743 355.593C641.223 354.007 638.19 353.213 634.643 353.213C631.237 353.213 628.18 354.007 625.473 355.593C622.767 357.18 620.643 359.443 619.103 362.383C617.563 365.277 616.793 368.683 616.793 372.603C616.793 376.477 617.563 379.883 619.103 382.823C620.643 385.717 622.767 387.957 625.473 389.543C628.18 391.13 631.237 391.923 634.643 391.923C638.19 391.923 641.223 391.153 643.743 389.613C646.31 388.027 648.27 385.763 649.623 382.823H657.253C655.433 387.49 652.54 391.107 648.573 393.673C644.607 396.193 639.963 397.453 634.643 397.453C630.117 397.453 625.987 396.403 622.253 394.303C618.567 392.157 615.65 389.193 613.503 385.413C611.357 381.633 610.283 377.363 610.283 372.603ZM726.826 348.243V397.033H720.456V374.913H695.606V397.033H689.236V348.243H695.606V369.663H720.456V348.243H726.826ZM798.562 397.033H792.193L766.573 358.183V397.033H760.203V348.173H766.573L792.193 386.953V348.173H798.562V397.033ZM854.041 397.523C849.515 397.523 845.385 396.473 841.651 394.373C837.918 392.227 834.955 389.263 832.761 385.483C830.615 381.657 829.541 377.363 829.541 372.603C829.541 367.843 830.615 363.573 832.761 359.793C834.955 355.967 837.918 353.003 841.651 350.903C845.385 348.757 849.515 347.683 854.041 347.683C858.615 347.683 862.768 348.757 866.501 350.903C870.235 353.003 873.175 355.943 875.321 359.723C877.468 363.503 878.541 367.797 878.541 372.603C878.541 377.41 877.468 381.703 875.321 385.483C873.175 389.263 870.235 392.227 866.501 394.373C862.768 396.473 858.615 397.523 854.041 397.523ZM854.041 391.993C857.448 391.993 860.505 391.2 863.211 389.613C865.965 388.027 868.111 385.763 869.651 382.823C871.238 379.883 872.031 376.477 872.031 372.603C872.031 368.683 871.238 365.277 869.651 362.383C868.111 359.443 865.988 357.18 863.281 355.593C860.575 354.007 857.495 353.213 854.041 353.213C850.588 353.213 847.508 354.007 844.801 355.593C842.095 357.18 839.948 359.443 838.361 362.383C836.821 365.277 836.051 368.683 836.051 372.603C836.051 376.477 836.821 379.883 838.361 382.823C839.948 385.763 842.095 388.027 844.801 389.613C847.555 391.2 850.635 391.993 854.041 391.993ZM915.821 391.853H932.901V397.033H909.451V348.243H915.821V391.853ZM984.285 397.523C979.759 397.523 975.629 396.473 971.895 394.373C968.162 392.227 965.199 389.263 963.005 385.483C960.859 381.657 959.785 377.363 959.785 372.603C959.785 367.843 960.859 363.573 963.005 359.793C965.199 355.967 968.162 353.003 971.895 350.903C975.629 348.757 979.759 347.683 984.285 347.683C988.859 347.683 993.012 348.757 996.745 350.903C1000.48 353.003 1003.42 355.943 1005.57 359.723C1007.71 363.503 1008.79 367.797 1008.79 372.603C1008.79 377.41 1007.71 381.703 1005.57 385.483C1003.42 389.263 1000.48 392.227 996.745 394.373C993.012 396.473 988.859 397.523 984.285 397.523ZM984.285 391.993C987.692 391.993 990.749 391.2 993.455 389.613C996.209 388.027 998.355 385.763 999.895 382.823C1001.48 379.883 1002.28 376.477 1002.28 372.603C1002.28 368.683 1001.48 365.277 999.895 362.383C998.355 359.443 996.232 357.18 993.525 355.593C990.819 354.007 987.739 353.213 984.285 353.213C980.832 353.213 977.752 354.007 975.045 355.593C972.339 357.18 970.192 359.443 968.605 362.383C967.065 365.277 966.295 368.683 966.295 372.603C966.295 376.477 967.065 379.883 968.605 382.823C970.192 385.763 972.339 388.027 975.045 389.613C977.799 391.2 980.879 391.993 984.285 391.993ZM1076.65 362.383C1075.3 359.537 1073.34 357.343 1070.77 355.803C1068.21 354.217 1065.22 353.423 1061.81 353.423C1058.41 353.423 1055.33 354.217 1052.57 355.803C1049.87 357.343 1047.72 359.583 1046.13 362.523C1044.59 365.417 1043.82 368.777 1043.82 372.603C1043.82 376.43 1044.59 379.79 1046.13 382.683C1047.72 385.577 1049.87 387.817 1052.57 389.403C1055.33 390.943 1058.41 391.713 1061.81 391.713C1066.57 391.713 1070.49 390.29 1073.57 387.443C1076.65 384.597 1078.45 380.747 1078.96 375.893H1059.5V370.713H1085.75V375.613C1085.38 379.627 1084.12 383.313 1081.97 386.673C1079.83 389.987 1077 392.623 1073.5 394.583C1070 396.497 1066.11 397.453 1061.81 397.453C1057.29 397.453 1053.16 396.403 1049.42 394.303C1045.69 392.157 1042.73 389.193 1040.53 385.413C1038.39 381.633 1037.31 377.363 1037.31 372.603C1037.31 367.843 1038.39 363.573 1040.53 359.793C1042.73 355.967 1045.69 353.003 1049.42 350.903C1053.16 348.757 1057.29 347.683 1061.81 347.683C1066.99 347.683 1071.57 348.967 1075.53 351.533C1079.55 354.1 1082.46 357.717 1084.28 362.383H1076.65ZM1123.05 348.243V397.033H1116.68V348.243H1123.05ZM1162.77 353.423V369.733H1180.55V374.983H1162.77V391.783H1182.65V397.033H1156.4V348.173H1182.65V353.423H1162.77ZM1230.26 397.523C1227.04 397.523 1224.15 396.963 1221.58 395.843C1219.06 394.677 1217.08 393.09 1215.63 391.083C1214.19 389.03 1213.44 386.673 1213.39 384.013H1220.18C1220.42 386.3 1221.35 388.237 1222.98 389.823C1224.66 391.363 1227.09 392.133 1230.26 392.133C1233.3 392.133 1235.68 391.387 1237.4 389.893C1239.18 388.353 1240.06 386.393 1240.06 384.013C1240.06 382.147 1239.55 380.63 1238.52 379.463C1237.5 378.297 1236.21 377.41 1234.67 376.803C1233.13 376.197 1231.06 375.543 1228.44 374.843C1225.22 374.003 1222.63 373.163 1220.67 372.323C1218.76 371.483 1217.1 370.177 1215.7 368.403C1214.35 366.583 1213.67 364.157 1213.67 361.123C1213.67 358.463 1214.35 356.107 1215.7 354.053C1217.06 352 1218.95 350.413 1221.37 349.293C1223.85 348.173 1226.67 347.613 1229.84 347.613C1234.42 347.613 1238.15 348.757 1241.04 351.043C1243.98 353.33 1245.64 356.363 1246.01 360.143H1239.01C1238.78 358.277 1237.8 356.643 1236.07 355.243C1234.35 353.797 1232.06 353.073 1229.21 353.073C1226.55 353.073 1224.38 353.773 1222.7 355.173C1221.02 356.527 1220.18 358.44 1220.18 360.913C1220.18 362.687 1220.67 364.133 1221.65 365.253C1222.68 366.373 1223.92 367.237 1225.36 367.843C1226.86 368.403 1228.93 369.057 1231.59 369.803C1234.81 370.69 1237.4 371.577 1239.36 372.463C1241.32 373.303 1243 374.633 1244.4 376.453C1245.8 378.227 1246.5 380.653 1246.5 383.733C1246.5 386.113 1245.87 388.353 1244.61 390.453C1243.35 392.553 1241.49 394.257 1239.01 395.563C1236.54 396.87 1233.62 397.523 1230.26 397.523Z" fill="#4FB4DB"/>
</svg>
